<svg xmlns="http://www.w3.org/2000/svg" xmlns:xlink="http://www.w3.org/1999/xlink" enable-background="new 0 0 128 128" height="128px" id="Layer_1" version="1.1" viewBox="0 0 128 128" width="128px" xml:space="preserve"><g><path d="M40.854,33.522c-1.104,0-2-0.896-2-2V16.118c0-1.104,0.896-2,2-2s2,0.896,2,2v15.404   C42.854,32.627,41.959,33.522,40.854,33.522z" fill="#f7f7f7"/><path d="M52.63,33.522c-1.104,0-2-0.896-2-2V16.118c0-1.104,0.896-2,2-2s2,0.896,2,2v15.404   C54.63,32.627,53.734,33.522,52.63,33.522z" fill="#f7f7f7"/><path d="M64.686,33.522c-1.104,0-2-0.896-2-2V16.118c0-1.104,0.896-2,2-2s2,0.896,2,2v15.404   C66.686,32.627,65.79,33.522,64.686,33.522z" fill="#f7f7f7"/></g><path d="M81.54,114.004H23.999c-1.104,0-2-0.896-2-2c0-1.104,0.896-2,2-2H81.54c1.104,0,2,0.896,2,2  C83.54,113.108,82.645,114.004,81.54,114.004z" fill="#f7f7f7"/><path d="M88.465,84.111h-6.246v-4h6.246c7.506,0,13.612-6.108,13.612-13.616c0-7.507-6.106-13.615-13.612-13.615h-6.246v-4h6.246  c9.712,0,17.612,7.902,17.612,17.615C106.077,76.209,98.177,84.111,88.465,84.111z" fill="#f7f7f7"/><path d="M52.77,106.949c-16.967,0-30.771-13.805-30.771-30.772V38.792H83.54v37.385C83.54,93.145,69.736,106.949,52.77,106.949z   M25.999,42.792v33.385c0,14.763,12.009,26.772,26.771,26.772S79.54,90.939,79.54,76.177V42.792H25.999z" fill="#f7f7f7"/></svg>