<svg xmlns="http://www.w3.org/2000/svg" version="1.0" width="210.000000pt" height="210.000000pt" viewBox="0 0 210.000000 210.000000" preserveAspectRatio="xMidYMid meet">

<g transform="translate(0.000000,210.000000) scale(0.100000,-0.100000)" fill="#fffcfc" stroke="none">
<path d="M986 2074 c-17 -16 -22 -89 -8 -112 12 -18 74 -62 89 -62 7 0 13 5 13 10 0 6 -9 10 -20 10 -11 0 -20 3 -20 6 0 3 9 17 20 31 54 68 -15 176 -74 117z m62 -6 c17 -17 15 -93 -3 -108 -42 -35 -85 43 -51 94 18 28 35 33 54 14z" fill="#fffcfc"/>
<path d="M1140 2071 c0 -10 -3 -38 -6 -63 -5 -34 -2 -48 11 -61 22 -22 62 -22 74 1 15 28 26 136 12 128 -6 -4 -11 -24 -11 -44 0 -74 -24 -107 -57 -80 -11 9 -14 28 -11 75 2 35 0 63 -4 63 -4 0 -8 -8 -8 -19z" fill="#fffcfc"/>
<path d="M1311 1994 c-23 -37 -39 -69 -36 -72 3 -3 12 4 21 16 25 37 74 23 74 -22 0 -10 3 -17 6 -13 9 8 -6 157 -15 157 -4 0 -26 -30 -50 -66z m49 1 c0 -23 -18 -34 -33 -19 -7 7 14 44 25 44 5 0 8 -11 8 -25z" fill="#fffcfc"/>
<path d="M724 2016 c6 -29 3 -34 -16 -40 -38 -10 -48 -7 -48 13 0 11 -4 23 -10 26 -5 3 -10 2 -10 -3 0 -18 32 -117 41 -126 12 -13 12 6 0 38 -9 22 -7 26 21 35 17 6 32 11 34 11 1 0 8 -17 15 -37 7 -21 14 -32 16 -26 5 14 -35 143 -44 143 -3 0 -2 -15 1 -34z" fill="#fffcfc"/>
<path d="M1466 1952 c-15 -40 -27 -74 -25 -75 26 -17 79 -35 83 -28 3 4 -11 13 -30 20 -18 7 -34 16 -34 21 0 5 9 30 20 56 12 26 19 54 18 63 -2 8 -16 -17 -32 -57z" fill="#fffcfc"/>
<path d="M504 1955 c-45 -68 56 -166 110 -106 14 15 15 23 5 45 -13 27 -18 30 -43 20 -22 -9 -20 -23 3 -17 26 7 38 -27 15 -44 -25 -18 -31 -17 -59 12 -16 15 -25 36 -25 55 0 25 6 34 33 45 l32 14 -27 1 c-19 0 -33 -8 -44 -25z" fill="#fffcfc"/>
<path d="M1640 1944 c0 -4 7 -12 15 -18 13 -9 10 -18 -17 -59 -23 -36 -36 -47 -50 -44 -31 8 -20 -7 22 -31 39 -22 56 -21 24 2 -14 11 -12 18 16 64 28 44 35 50 51 41 38 -20 18 8 -21 30 -22 12 -40 19 -40 15z" fill="#fffcfc"/>
<path d="M360 1870 c-19 -16 -30 -30 -24 -30 5 0 15 5 22 12 6 6 13 10 15 7 2 -2 18 -23 35 -45 35 -45 39 -60 20 -67 -7 -2 -10 -8 -6 -12 4 -4 23 5 43 20 19 15 33 30 31 33 -3 3 -12 0 -20 -7 -11 -9 -20 -4 -43 26 -43 55 -46 62 -33 78 21 25 -3 16 -40 -15z" fill="#fffcfc"/>
<path d="M1780 1853 c0 -6 7 -16 15 -23 13 -11 9 -20 -31 -67 -60 -70 -51 -80 10 -12 45 50 47 51 66 34 11 -10 23 -15 27 -12 3 4 4 8 2 10 -2 1 -23 20 -47 42 -23 21 -42 34 -42 28z" fill="#fffcfc"/>
<path d="M795 1796 c-13 -13 -35 -46 -49 -75 -15 -28 -41 -64 -59 -80 -17 -16 -55 -50 -83 -75 -29 -26 -64 -64 -78 -85 -25 -36 -31 -39 -91 -45 -75 -8 -180 -38 -247 -72 -27 -14 -48 -26 -48 -28 0 -2 27 7 61 21 100 41 192 56 339 56 199 0 346 -25 696 -121 99 -28 226 -58 283 -67 187 -32 389 -10 467 50 12 10 2 8 -30 -5 -133 -55 -188 -33 -277 113 -23 37 -40 53 -77 68 -118 49 -135 67 -147 154 -16 111 -47 144 -116 124 -59 -18 -123 -81 -197 -193 -56 -85 -68 -97 -76 -81 -6 9 -34 46 -63 81 -42 52 -54 76 -68 135 -19 84 -38 124 -64 139 -30 16 -50 12 -76 -14z m63 -48 c7 -7 12 -27 12 -46 0 -37 11 -61 51 -112 34 -44 44 -77 29 -95 -19 -23 -42 -18 -78 15 -39 35 -53 37 -77 10 -25 -28 -54 -25 -92 10 -18 16 -33 32 -33 35 0 2 18 17 41 32 26 17 50 45 66 77 26 52 51 86 63 86 3 0 11 -5 18 -12z m517 -92 c18 -13 22 -34 24 -129 1 -11 33 -38 86 -72 46 -30 91 -65 100 -78 17 -26 12 -52 -11 -61 -16 -6 -64 13 -64 25 0 10 -64 49 -80 49 -6 0 -25 -14 -40 -30 -32 -34 -49 -32 -73 10 -29 49 -45 60 -76 54 -22 -5 -32 -2 -39 13 -22 40 23 149 83 201 39 35 61 39 90 18z" fill="#fffcfc"/>
<path d="M278 1767 c27 -29 27 -39 2 -62 -20 -18 -21 -18 -45 5 -14 13 -25 19 -25 13 0 -12 102 -103 115 -103 5 0 -4 14 -20 30 l-29 30 22 22 22 22 30 -22 c51 -38 33 -6 -24 42 -56 49 -84 62 -48 23z" fill="#fffcfc"/>
<path d="M1885 1685 c-9 -25 -28 -53 -41 -62 -34 -22 -21 -30 18 -10 18 9 53 20 78 26 l45 10 -47 -4 c-53 -5 -58 2 -33 45 17 29 18 40 6 40 -4 0 -16 -20 -26 -45z" fill="#fffcfc"/>
<path d="M793 1298 c-45 -49 -92 -182 -93 -263 -1 -32 -20 -60 -60 -88 -34 -24 -59 -21 -72 8 -10 23 -8 29 26 62 52 53 61 103 17 103 -35 0 -81 -77 -81 -135 0 -34 27 -75 50 -75 20 0 75 27 89 43 20 24 29 21 36 -13 9 -41 37 -55 73 -36 16 8 35 22 42 31 13 16 15 14 25 -16 14 -42 43 -48 89 -20 41 26 46 26 46 2 0 -11 7 -27 16 -35 19 -20 90 -20 124 -1 35 20 38 19 42 -11 5 -42 30 -52 75 -29 21 11 41 21 46 23 4 2 7 -7 7 -20 0 -31 18 -48 51 -48 38 0 75 33 95 85 23 61 9 95 -37 95 -25 0 -41 -10 -74 -46 -109 -118 -177 -106 -110 20 23 43 23 46 5 46 -11 0 -30 -17 -47 -42 -66 -100 -187 -95 -153 7 13 40 53 85 76 85 13 0 15 -6 10 -32 -5 -31 -5 -32 9 -14 26 35 11 66 -32 66 -25 0 -93 -55 -93 -75 0 -18 -70 -75 -92 -75 -28 0 -27 41 2 108 19 41 19 42 0 42 -13 0 -27 -14 -39 -39 -36 -70 -110 -114 -125 -75 -16 40 -5 81 39 143 51 73 85 156 85 206 0 30 -3 35 -23 35 -13 0 -33 -10 -44 -22z m57 -17 c0 -25 -76 -175 -97 -192 -15 -13 -16 -11 -10 16 8 44 44 135 67 173 21 34 40 35 40 3z m-230 -198 c0 -10 -11 -31 -25 -48 -19 -24 -24 -26 -25 -12 0 23 28 77 40 77 6 0 10 -8 10 -17z m808 -175 c10 -50 -62 -134 -93 -108 -8 7 -15 20 -15 29 0 18 37 82 54 94 18 12 51 3 54 -15z" fill="#fffcfc"/>
<path d="M233 1231 c-12 -19 -32 -41 -45 -48 -22 -12 -21 -12 10 -7 l32 7 0 -59 c0 -75 27 -275 38 -286 5 -5 19 1 33 12 13 11 44 35 69 53 70 52 105 108 105 172 0 93 -64 149 -162 142 -50 -3 -52 -2 -55 22 -3 26 -3 26 -25 -8z m173 -62 c66 -60 64 -136 -6 -207 -41 -43 -96 -77 -103 -64 -10 15 -32 255 -28 296 1 5 26 6 56 4 40 -3 62 -11 81 -29z" fill="#fffcfc"/>
<path d="M917 1124 c-14 -14 -7 -35 11 -32 9 2 17 10 17 17 0 16 -18 25 -28 15z" fill="#fffcfc"/>
<path d="M1241 1046 c-9 -10 -9 -16 -1 -21 17 -10 37 12 24 25 -8 8 -15 6 -23 -4z" fill="#fffcfc"/>
<path d="M10 985 c-10 -12 -10 -18 0 -30 20 -25 55 -15 55 15 0 30 -35 40 -55 15z" fill="#fffcfc"/>
<path d="M2040 985 c-10 -12 -10 -18 0 -30 20 -25 55 -15 55 15 0 30 -35 40 -55 15z" fill="#fffcfc"/>
<path d="M1766 953 c-3 -10 -5 -38 -4 -63 1 -52 -17 -93 -60 -134 -53 -50 -68 -9 -32 86 11 29 20 56 20 61 0 19 -20 2 -49 -43 -34 -53 -99 -112 -113 -104 -13 8 -9 41 12 101 24 68 23 63 6 63 -23 0 -36 -25 -47 -89 -17 -94 18 -119 84 -61 19 17 37 30 40 30 3 0 7 -17 9 -37 3 -32 7 -38 28 -41 39 -4 110 65 110 106 0 18 4 32 9 32 15 0 51 -65 51 -92 0 -31 -15 -45 -55 -50 -24 -3 -27 -6 -12 -12 44 -21 136 24 170 82 29 50 15 48 -22 -3 -18 -25 -36 -45 -42 -45 -5 0 -9 15 -9 33 0 22 -11 49 -30 75 -21 30 -30 53 -30 82 0 42 -23 58 -34 23z" fill="#fffcfc"/>
<path d="M402 754 c-84 -14 -187 -50 -249 -86 -50 -30 -39 -32 18 -3 212 108 542 95 1021 -40 276 -77 346 -90 503 -90 151 0 205 12 292 62 67 39 58 42 -15 6 -161 -78 -339 -66 -741 52 -357 104 -614 135 -829 99z" fill="#fffcfc"/>
<path d="M290 407 c57 -80 201 -211 286 -261 161 -94 316 -136 504 -136 188 0 343 42 504 136 76 45 226 177 269 239 12 16 -10 -2 -50 -41 -132 -132 -299 -226 -489 -275 -133 -34 -340 -32 -479 5 -193 51 -337 136 -485 285 -72 73 -86 84 -60 48z" fill="#fffcfc"/>
<path d="M568 418 c7 -7 12 -28 12 -48 0 -20 -5 -41 -12 -48 -9 -9 -6 -12 14 -12 21 0 25 4 21 24 -4 19 0 25 17 28 13 2 28 10 33 20 17 26 -9 48 -56 48 -32 0 -38 -3 -29 -12z m60 -20 c-5 -32 -28 -35 -28 -4 0 17 5 26 16 26 10 0 14 -7 12 -22z" fill="#fffcfc"/>
<path d="M685 370 c0 -54 2 -60 21 -60 18 0 20 5 17 28 -4 26 -4 26 11 8 9 -11 16 -23 16 -28 0 -4 10 -8 23 -8 18 0 19 2 7 10 -10 6 -15 25 -15 57 l0 48 -40 3 -40 3 0 -61z m60 25 c0 -10 -6 -20 -12 -22 -8 -3 -13 5 -13 22 0 17 5 25 13 23 6 -3 12 -13 12 -23z" fill="#fffcfc"/>
<path d="M822 418 c-17 -17 -15 -83 2 -97 26 -21 79 -9 96 22 13 24 13 30 0 55 -12 20 -25 28 -50 30 -19 2 -41 -3 -48 -10z m74 -23 c9 -37 -3 -75 -24 -75 -25 0 -42 20 -42 50 0 50 54 71 66 25z" fill="#fffcfc"/>
<path d="M965 370 l0 -60 36 0 c42 0 69 24 69 62 0 34 -29 58 -71 58 l-34 0 0 -60z m70 0 c0 -39 -3 -45 -22 -48 -21 -3 -23 0 -23 48 0 48 2 51 23 48 19 -3 22 -9 22 -48z" fill="#fffcfc"/>
<path d="M1101 380 c10 -64 14 -70 48 -70 38 0 51 17 51 66 0 25 5 44 13 47 6 3 1 6 -13 6 -24 1 -25 -2 -25 -51 0 -46 -3 -53 -20 -53 -17 0 -20 7 -20 53 0 46 -2 52 -21 52 -20 0 -20 -3 -13 -50z" fill="#fffcfc"/>
<path d="M1256 414 c-18 -18 -21 -56 -6 -85 12 -20 74 -27 85 -9 4 6 -6 7 -24 4 -26 -6 -32 -3 -41 20 -13 34 3 76 29 76 11 0 22 -6 24 -12 3 -8 6 -6 6 5 1 22 -51 24 -73 1z" fill="#fffcfc"/>
<path d="M1360 421 c0 -5 9 -7 21 -4 20 6 21 3 18 -51 -3 -45 -1 -56 11 -56 12 0 14 11 12 55 -3 44 -1 55 11 55 9 0 18 -6 20 -12 3 -8 6 -6 6 5 1 14 -8 17 -49 17 -27 0 -50 -4 -50 -9z" fill="#fffcfc"/>
<path d="M1497 423 c-15 -14 -6 -43 18 -59 14 -9 25 -23 25 -30 0 -17 -37 -19 -43 -1 -3 7 -6 5 -6 -5 -1 -13 7 -18 28 -18 54 0 64 44 15 70 -13 7 -24 19 -24 27 0 17 37 17 43 1 3 -8 6 -6 6 5 1 12 -7 17 -27 17 -16 0 -32 -3 -35 -7z" fill="#fffcfc"/>
</g>
</svg>