<svg xmlns="http://www.w3.org/2000/svg" version="1.0" width="210.000000pt" height="210.000000pt" viewBox="0 0 210.000000 210.000000" preserveAspectRatio="xMidYMid meet">

<g transform="translate(0.000000,210.000000) scale(0.100000,-0.100000)" fill="#fcfcfc" stroke="none">
<path d="M1107 1693 c-4 -3 -7 -20 -7 -37 0 -35 15 -25 25 17 7 25 -3 36 -18 20z" fill="#fcfcfc"/>
<path d="M835 1647 c-31 -76 -10 -161 35 -137 10 5 22 20 26 32 6 20 7 19 20 -10 15 -36 21 -38 50 -18 21 15 61 15 83 2 6 -4 23 0 37 9 30 20 25 32 -6 15 -30 -16 -36 -6 -11 19 25 25 17 53 -12 49 -14 -2 -24 -14 -31 -35 -15 -54 -28 -38 -21 25 4 31 8 60 9 63 0 4 -3 9 -9 10 -5 2 -15 -23 -21 -56 -14 -75 -23 -97 -38 -92 -7 3 -10 29 -8 76 1 44 -2 71 -8 71 -6 0 -12 -6 -14 -12 -26 -94 -39 -128 -51 -128 -23 0 -27 17 -14 80 14 71 6 89 -16 37z m235 -66 c0 -12 -20 -25 -27 -18 -7 7 6 27 18 27 5 0 9 -4 9 -9z" fill="#fcfcfc"/>
<path d="M1165 1578 c-4 -20 -5 -44 -2 -55 3 -14 7 -11 19 16 12 26 17 31 24 19 5 -8 16 -18 24 -21 8 -4 22 -12 31 -19 14 -9 22 -8 44 6 32 21 28 30 -9 17 -30 -12 -33 -5 -10 20 19 21 12 49 -11 49 -8 0 -21 -11 -27 -25 -6 -14 -15 -25 -20 -25 -4 0 -8 11 -8 25 0 26 -15 34 -23 13 -4 -10 -8 -10 -15 1 -8 11 -12 6 -17 -21z m115 -3 c-7 -9 -15 -13 -17 -11 -7 7 7 26 19 26 6 0 6 -6 -2 -15z" fill="#fcfcfc"/>
<path d="M544 1410 c-28 -11 -54 -48 -54 -78 0 -35 17 -60 60 -87 24 -15 40 -33 40 -44 0 -28 -36 -36 -66 -16 -14 9 -27 15 -29 13 -5 -6 -25 -47 -25 -51 0 -3 19 -12 41 -21 51 -21 92 -13 119 21 41 52 19 102 -71 165 -23 15 -23 17 -7 34 14 15 22 16 42 6 22 -10 27 -9 37 9 8 16 8 24 -3 34 -18 18 -59 25 -84 15z" fill="#fcfcfc"/>
<path d="M921 1403 c-51 -26 -73 -75 -69 -148 6 -106 73 -164 151 -131 44 18 68 54 75 111 l5 45 -57 0 c-53 0 -56 -1 -56 -25 0 -20 5 -25 25 -25 30 0 33 -20 7 -43 -26 -23 -45 -21 -72 8 -17 18 -23 36 -23 70 0 34 6 52 23 70 28 29 46 31 72 8 18 -16 20 -16 39 3 19 20 19 20 -3 41 -34 31 -77 36 -117 16z" fill="#fcfcfc"/>
<path d="M1974 1410 c-28 -11 -54 -48 -54 -78 0 -35 17 -60 60 -87 24 -15 40 -33 40 -44 0 -28 -36 -36 -66 -16 -14 9 -27 15 -29 13 -1 -2 -8 -13 -14 -26 -11 -20 -10 -26 6 -37 46 -34 117 -26 147 17 35 50 16 93 -69 155 -28 20 -29 22 -13 39 14 15 22 16 42 6 22 -10 27 -9 37 9 8 16 8 24 -3 34 -18 18 -59 25 -84 15z" fill="#fcfcfc"/>
<path d="M0 1265 l0 -145 54 0 c85 0 136 54 136 145 0 91 -51 145 -136 145 l-54 0 0 -145z m110 65 c41 -41 17 -150 -33 -150 -21 0 -22 4 -22 85 0 74 2 85 18 85 9 0 26 -9 37 -20z" fill="#fcfcfc"/>
<path d="M260 1265 l0 -145 70 0 c68 0 70 1 70 25 0 23 -4 25 -40 25 -39 0 -40 1 -40 35 0 34 1 35 40 35 36 0 40 3 40 25 0 23 -4 25 -40 25 -38 0 -40 2 -40 30 0 28 2 30 40 30 38 0 40 2 40 30 l0 30 -70 0 -70 0 0 -145z" fill="#fcfcfc"/>
<path d="M720 1265 l0 -145 30 0 30 0 0 145 0 145 -30 0 -30 0 0 -145z" fill="#fcfcfc"/>
<path d="M1150 1266 l0 -146 25 0 c24 0 24 2 27 88 l3 87 48 -87 c40 -74 52 -88 73 -88 l24 0 0 145 0 145 -25 0 c-24 0 -24 -2 -27 -87 l-3 -88 -45 85 c-38 72 -49 85 -72 88 l-28 3 0 -145z" fill="#fcfcfc"/>
<path d="M1440 1265 l0 -145 65 0 c62 0 65 1 65 24 0 21 -5 25 -37 28 -35 3 -38 6 -41 36 -3 31 -2 32 37 32 37 0 41 2 41 25 0 23 -4 25 -40 25 -38 0 -40 2 -40 30 0 28 2 30 40 30 38 0 40 2 40 30 l0 30 -65 0 -65 0 0 -145z" fill="#fcfcfc"/>
<path d="M1650 1265 l0 -145 29 0 c29 0 30 2 33 52 l3 53 34 -53 c29 -46 37 -52 67 -52 l33 0 -39 57 -40 57 22 24 c17 17 23 36 23 69 0 62 -27 83 -106 83 l-59 0 0 -145z m104 73 c13 -21 -2 -51 -28 -56 -13 -3 -16 5 -16 38 0 33 3 41 16 38 9 -2 22 -11 28 -20z" fill="#fcfcfc"/>
<path d="M73 965 c0 -22 2 -30 4 -17 2 12 2 30 0 40 -3 9 -5 -1 -4 -23z" fill="#fcfcfc"/>
<path d="M146 965 c15 -20 29 -34 31 -31 6 6 -39 66 -49 66 -5 0 3 -16 18 -35z" fill="#fcfcfc"/>
<path d="M280 965 c0 -19 4 -35 8 -35 4 0 6 16 4 35 -2 19 -6 35 -8 35 -2 0 -4 -16 -4 -35z" fill="#fcfcfc"/>
<path d="M363 960 c0 -25 2 -35 4 -22 2 12 2 32 0 45 -2 12 -4 2 -4 -23z" fill="#fcfcfc"/>
<path d="M403 965 c0 -22 2 -30 4 -17 2 12 2 30 0 40 -3 9 -5 -1 -4 -23z" fill="#fcfcfc"/>
<path d="M473 965 c0 -22 2 -30 4 -17 2 12 2 30 0 40 -3 9 -5 -1 -4 -23z" fill="#fcfcfc"/>
<path d="M603 965 c0 -22 2 -30 4 -17 2 12 2 30 0 40 -3 9 -5 -1 -4 -23z" fill="#fcfcfc"/>
<path d="M683 960 c0 -25 2 -35 4 -22 2 12 2 32 0 45 -2 12 -4 2 -4 -23z" fill="#fcfcfc"/>
<path d="M780 970 c22 -31 40 -46 40 -33 -1 10 -47 63 -55 63 -4 0 3 -13 15 -30z" fill="#fcfcfc"/>
<path d="M923 960 c0 -25 2 -35 4 -22 2 12 2 32 0 45 -2 12 -4 2 -4 -23z" fill="#fcfcfc"/>
<path d="M1223 960 c0 -25 2 -35 4 -22 2 12 2 32 0 45 -2 12 -4 2 -4 -23z" fill="#fcfcfc"/>
<path d="M1350 993 c0 -18 20 -66 25 -61 3 3 -1 20 -9 39 -9 19 -15 29 -16 22z" fill="#fcfcfc"/>
<path d="M1493 965 c0 -22 2 -30 4 -17 2 12 2 30 0 40 -3 9 -5 -1 -4 -23z" fill="#fcfcfc"/>
<path d="M1633 960 c0 -25 2 -35 4 -22 2 12 2 32 0 45 -2 12 -4 2 -4 -23z" fill="#fcfcfc"/>
<path d="M1702 965 c0 -19 4 -35 9 -35 5 0 9 16 9 35 0 19 -4 35 -9 35 -5 0 -9 -16 -9 -35z" fill="#fcfcfc"/>
<path d="M1803 965 c0 -22 2 -30 4 -17 2 12 2 30 0 40 -3 9 -5 -1 -4 -23z" fill="#fcfcfc"/>
<path d="M2013 960 c0 -25 2 -35 4 -22 2 12 2 32 0 45 -2 12 -4 2 -4 -23z" fill="#fcfcfc"/>
<path d="M990 966 c0 -14 4 -27 8 -30 5 -3 6 8 4 25 -5 35 -12 38 -12 5z" fill="#fcfcfc"/>
<path d="M1051 960 c0 -29 1 -32 10 -17 7 11 7 23 0 35 -9 14 -10 11 -10 -18z" fill="#fcfcfc"/>
<path d="M1100 966 c0 -14 3 -27 8 -29 4 -3 7 8 7 24 0 16 -3 29 -7 29 -5 0 -8 -11 -8 -24z" fill="#fcfcfc"/>
<path d="M1163 958 c0 -30 1 -30 10 -10 7 15 7 26 0 33 -6 6 -10 -1 -10 -23z" fill="#fcfcfc"/>
<path d="M1390 985 c1 -6 7 -21 16 -35 l15 -25 -7 25 c-7 26 -24 52 -24 35z" fill="#fcfcfc"/>
<path d="M1900 984 c0 -4 11 -17 25 -30 16 -15 25 -18 25 -10 0 8 -11 21 -25 30 -14 9 -25 13 -25 10z" fill="#fcfcfc"/>
<path d="M1736 947 c3 -10 9 -15 12 -12 3 3 0 11 -7 18 -10 9 -11 8 -5 -6z" fill="#fcfcfc"/>
<path d="M970 834 c-102 -44 -158 -163 -126 -267 52 -171 255 -222 374 -93 48 53 66 102 60 172 -12 148 -173 246 -308 188z m183 -47 c132 -74 114 -284 -28 -337 -24 -9 -28 -9 -17 1 22 23 13 29 -48 29 -60 0 -70 -6 -48 -28 22 -22 -7 -13 -54 17 -137 87 -105 293 52 340 45 13 95 5 143 -22z" fill="#fcfcfc"/>
<path d="M1048 747 c8 -9 2 -24 -19 -56 -26 -37 -29 -47 -20 -75 5 -17 13 -52 17 -78 6 -44 9 -48 34 -48 26 0 28 3 35 58 4 31 11 65 17 75 6 13 3 25 -12 46 -11 16 -23 43 -26 60 -4 18 -13 31 -21 31 -11 0 -13 -3 -5 -13z m17 -97 c3 -5 1 -10 -4 -10 -6 0 -11 5 -11 10 0 6 2 10 4 10 3 0 8 -4 11 -10z" fill="#fcfcfc"/>
<path d="M155 750 c-4 -7 92 -10 279 -10 184 0 286 4 286 10 0 14 -557 14 -565 0z" fill="#fcfcfc"/>
<path d="M1405 750 c-4 -7 93 -10 285 -10 192 0 289 3 285 10 -4 6 -110 10 -285 10 -175 0 -281 -4 -285 -10z" fill="#fcfcfc"/>
<path d="M220 643 c-96 -2 -178 -7 -183 -12 -12 -12 500 -25 609 -16 221 18 -48 36 -426 28z" fill="#fcfcfc"/>
<path d="M1463 643 c-35 -2 -63 -8 -63 -13 0 -16 173 -22 436 -15 146 4 262 11 257 15 -9 8 -529 19 -630 13z" fill="#fcfcfc"/>
<path d="M355 521 l-100 -6 109 -7 c132 -10 312 -9 346 1 65 19 -122 25 -355 12z" fill="#fcfcfc"/>
<path d="M1430 521 l-35 -7 34 -7 c40 -8 242 -8 361 2 85 6 85 6 -69 14 -172 8 -239 7 -291 -2z" fill="#fcfcfc"/>
</g>
</svg>