<svg xmlns="http://www.w3.org/2000/svg" version="1.0" width="210.000000pt" height="210.000000pt" viewBox="0 0 210.000000 210.000000" preserveAspectRatio="xMidYMid meet">

<g transform="translate(0.000000,210.000000) scale(0.100000,-0.100000)" fill="#fcfafa" stroke="none">
<path d="M1046 1516 c-495 -112 -761 -176 -764 -185 -3 -9 2 -11 14 -8 11 3 152 36 314 72 359 80 772 173 1019 230 102 23 187 47 189 53 2 7 0 12 -5 11 -4 0 -350 -78 -767 -173z" fill="#fcfafa"/>
<path d="M2005 1662 c-11 -2 -37 -8 -57 -13 l-38 -10 0 -194 0 -193 28 7 c26 7 27 10 27 77 0 38 5 72 10 76 20 15 33 7 39 -24 19 -97 24 -105 56 -100 23 3 29 9 26 21 -34 114 -37 143 -22 176 9 18 16 55 16 82 0 71 -30 106 -85 95z m23 -115 c3 -48 0 -57 -18 -67 -34 -18 -42 -8 -42 55 0 48 3 60 18 66 32 13 39 4 42 -54z" fill="#fcfafa"/>
<path d="M1778 1612 l-68 -15 0 -194 c0 -106 4 -193 9 -193 5 0 41 7 80 16 67 15 71 18 71 44 0 27 -1 28 -37 19 -72 -16 -74 -15 -71 43 3 51 4 52 41 61 32 8 37 13 37 39 0 23 -4 28 -17 24 -10 -2 -28 -7 -40 -11 -22 -6 -23 -4 -23 49 l0 55 43 11 c66 17 67 18 67 45 0 28 0 28 -92 7z" fill="#fcfafa"/>
<path d="M163 1567 c4 -11 10 -30 13 -43 3 -13 10 -24 15 -24 5 0 2 17 -6 37 -16 38 -33 62 -22 30z" fill="#fcfafa"/>
<path d="M232 1540 c1 -45 1 -45 8 -10 4 19 8 31 9 25 2 -15 41 -62 41 -50 -1 6 -14 26 -30 45 l-29 35 1 -45z" fill="#fcfafa"/>
<path d="M282 1560 c0 -14 2 -19 5 -12 2 6 2 18 0 25 -3 6 -5 1 -5 -13z" fill="#fcfafa"/>
<path d="M340 1540 c0 -22 4 -40 8 -40 4 0 6 15 4 34 -3 27 0 35 15 39 15 4 14 5 -4 6 -20 1 -23 -4 -23 -39z" fill="#fcfafa"/>
<path d="M400 1560 c-8 -14 -8 -26 0 -40 6 -11 12 -20 13 -20 1 0 2 18 2 40 0 22 -1 40 -2 40 -1 0 -7 -9 -13 -20z" fill="#fcfafa"/>
<path d="M449 1567 c11 -14 12 -23 2 -44 -11 -23 -10 -25 3 -13 21 17 20 44 -1 61 -16 13 -17 12 -4 -4z" fill="#fcfafa"/>
<path d="M490 1577 c0 -2 16 -21 35 -43 41 -46 47 -38 8 12 -24 29 -43 43 -43 31z" fill="#fcfafa"/>
<path d="M595 1540 c0 -22 3 -40 8 -40 4 0 7 18 7 40 0 22 -3 40 -7 40 -5 0 -8 -18 -8 -40z" fill="#fcfafa"/>
<path d="M652 1568 c-17 -17 -15 -43 5 -59 15 -13 15 -12 2 9 -11 18 -11 26 -1 42 14 23 12 26 -6 8z" fill="#fcfafa"/>
<path d="M693 1560 c9 -16 9 -24 0 -40 -11 -16 -10 -18 2 -14 8 4 15 19 15 34 0 15 -7 30 -15 34 -12 4 -13 2 -2 -14z" fill="#fcfafa"/>
<path d="M1535 1555 c-5 -2 -22 -6 -37 -9 l-28 -6 0 -196 c0 -181 1 -195 18 -190 9 3 37 10 60 15 24 5 55 20 68 32 46 43 55 146 14 171 -17 11 -17 13 1 42 29 47 21 114 -15 138 -11 8 -62 9 -81 3z m53 -78 c6 -33 -8 -68 -31 -76 -20 -8 -22 -5 -27 38 -3 25 -4 50 -2 54 7 16 57 2 60 -16z m6 -162 c8 -31 -8 -71 -34 -85 -12 -6 -23 -10 -25 -8 -2 2 -5 27 -6 57 -3 46 0 55 16 61 28 10 42 2 49 -25z" fill="#fcfafa"/>
<path d="M495 1510 c-3 -5 -1 -10 4 -10 6 0 11 5 11 10 0 6 -2 10 -4 10 -3 0 -8 -4 -11 -10z" fill="#fcfafa"/>
<path d="M1278 1497 l-48 -10 0 -194 0 -194 23 3 c20 3 22 10 27 78 4 66 7 75 25 75 16 0 22 -12 34 -62 13 -55 18 -63 37 -63 34 0 36 12 16 93 -16 63 -17 78 -6 98 7 13 13 54 14 91 0 58 -3 69 -22 82 -25 18 -32 18 -100 3z m70 -104 c3 -44 0 -53 -20 -67 -41 -29 -48 -21 -48 48 0 53 3 65 18 69 39 11 47 3 50 -50z" fill="#fcfafa"/>
<path d="M1070 1447 l-35 -12 -30 -197 c-28 -173 -29 -198 -16 -198 28 0 39 14 48 59 7 37 13 46 35 52 32 8 38 4 38 -30 0 -37 12 -51 38 -44 27 7 27 2 -4 191 -32 198 -30 193 -74 179z m17 -239 c-28 -18 -38 -8 -32 30 18 114 17 113 31 42 9 -49 9 -67 1 -72z" fill="#fcfafa"/>
<path d="M773 1379 l-33 -10 0 -190 0 -191 47 7 c101 15 147 65 140 149 -3 31 -11 54 -22 62 -16 12 -16 14 -1 36 20 29 21 97 0 126 -17 24 -70 29 -131 11z m91 -72 c8 -30 -15 -71 -42 -75 -20 -3 -22 1 -22 47 0 39 4 50 18 53 26 6 39 -1 46 -25z m-6 -139 c20 -20 14 -67 -13 -94 -14 -14 -30 -22 -35 -19 -11 7 -14 108 -3 118 10 11 38 8 51 -5z" fill="#fcfafa"/>
<path d="M523 1322 l-63 -15 0 -194 c0 -106 3 -193 8 -193 4 0 39 8 77 18 64 17 70 20 73 46 3 26 1 28 -22 22 -84 -20 -76 -24 -76 37 l0 56 35 7 c30 5 35 10 35 35 0 32 -6 34 -44 19 l-26 -10 0 59 0 59 48 8 c41 8 47 12 50 37 4 32 -2 32 -95 9z" fill="#fcfafa"/>
<path d="M357 1283 c-4 -3 -7 -44 -7 -90 0 -75 -2 -83 -19 -83 -11 0 -26 -3 -35 -6 -14 -5 -16 5 -16 75 0 80 0 81 -25 81 l-25 0 0 -196 0 -195 23 3 c20 3 22 9 25 83 2 44 6 83 10 86 4 4 19 9 35 13 l27 6 0 -80 0 -81 28 3 27 3 3 193 2 192 -23 0 c-13 0 -27 -3 -30 -7z" fill="#fcfafa"/>
<path d="M115 1229 c-109 -26 -115 -29 -115 -56 0 -23 3 -25 30 -19 l30 6 0 -166 0 -166 23 6 c12 3 25 6 29 6 4 0 9 75 10 167 l3 167 25 6 c18 4 26 14 28 33 4 30 0 30 -63 16z" fill="#fcfafa"/>
<path d="M1536 1063 c-14 -15 -36 -47 -48 -70 -13 -25 -30 -43 -40 -43 -9 0 -20 -4 -23 -10 -3 -5 1 -10 11 -10 35 0 -3 -107 -46 -130 -25 -13 -27 7 -6 48 24 48 29 72 14 72 -17 0 -78 -128 -71 -147 7 -19 36 -16 66 7 22 17 29 19 45 9 16 -10 26 -8 56 10 29 18 40 20 51 11 22 -18 145 42 145 72 0 5 -9 4 -19 -2 -11 -5 -22 -10 -25 -10 -14 0 -4 55 15 81 16 23 17 29 6 29 -9 0 -40 -28 -71 -63 -53 -61 -118 -108 -131 -95 -10 10 14 84 32 100 10 9 33 19 51 23 36 7 44 25 11 25 l-21 0 21 34 c39 62 21 107 -23 59z m24 -18 c0 -12 -52 -86 -57 -82 -7 7 38 87 49 87 4 0 8 -2 8 -5z m41 -188 c-6 -15 -17 -27 -24 -27 -27 0 -27 14 0 42 30 32 39 26 24 -15z" fill="#fcfafa"/>
<path d="M1803 969 c-36 -10 -45 -29 -14 -29 27 0 81 21 81 31 0 11 -24 10 -67 -2z" fill="#fcfafa"/>
<path d="M1007 892 c-18 -20 -22 -42 -8 -42 18 0 54 37 47 48 -10 17 -20 15 -39 -6z" fill="#fcfafa"/>
<path d="M1324 902 c-6 -4 -23 -30 -37 -59 -35 -68 -93 -113 -111 -85 -7 12 31 92 45 92 6 0 9 -7 5 -15 -9 -23 22 -18 35 6 8 17 8 24 -3 34 -20 19 -53 2 -85 -44 -26 -37 -61 -57 -50 -28 25 66 14 76 -28 25 l-27 -33 7 29 c5 25 4 28 -8 17 -8 -6 -24 -33 -35 -59 -22 -50 -54 -86 -71 -81 -6 3 -1 26 14 57 28 62 31 74 11 66 -7 -3 -23 -27 -36 -54 -24 -51 -65 -98 -76 -87 -4 4 3 28 14 54 20 47 20 48 2 57 -27 12 -60 -12 -109 -78 -75 -101 -129 -122 -95 -36 13 31 26 46 51 56 35 15 47 40 13 29 -26 -8 -26 -4 12 65 31 54 34 81 9 65 -6 -3 -29 -39 -51 -79 -34 -62 -45 -74 -77 -84 -20 -6 -38 -10 -40 -9 -1 2 9 25 22 52 28 54 32 90 12 98 -20 8 -92 -27 -111 -54 -23 -34 -20 -46 7 -22 68 63 95 44 51 -37 -27 -49 -59 -70 -83 -55 -7 3 -11 -2 -11 -14 0 -15 6 -21 21 -21 11 0 19 -3 17 -7 -2 -5 -16 -32 -31 -61 -16 -30 -26 -57 -23 -60 11 -10 43 28 75 87 25 47 37 59 68 69 20 6 39 10 41 8 2 -2 -3 -17 -11 -33 -14 -27 -21 -55 -18 -80 2 -22 36 -14 81 18 32 23 45 28 50 18 6 -9 16 -7 43 8 25 15 38 18 46 10 7 -7 16 -6 29 6 11 10 26 14 40 10 12 -3 29 1 38 8 9 7 28 13 42 14 22 0 32 10 57 55 24 45 30 51 33 33 2 -17 10 -23 28 -23 15 0 24 -6 24 -15 0 -26 43 -23 83 6 15 11 27 15 27 9 0 -17 36 -11 55 10 16 17 16 20 2 20 -13 0 -12 9 9 61 26 62 27 73 8 61z m-454 -137 c0 -24 -56 -105 -72 -105 -14 0 -9 14 22 63 25 40 50 61 50 42z" fill="#fcfafa"/>
<path d="M1765 800 c-16 -4 -221 -54 -455 -110 -753 -181 -1021 -247 -1027 -254 -4 -3 -4 -8 -1 -11 3 -3 230 49 504 115 274 66 612 148 749 181 301 73 285 68 285 80 0 11 -13 10 -55 -1z" fill="#fcfafa"/>
<path d="M263 617 c-38 -9 -69 -37 -40 -37 23 0 86 21 92 30 9 15 -8 17 -52 7z" fill="#fcfafa"/>
<path d="M1925 610 c-4 -6 -11 -8 -16 -5 -5 3 -6 -1 -3 -9 3 -8 -2 -35 -10 -60 -9 -26 -16 -52 -15 -59 0 -7 8 10 18 38 l18 50 16 -45 c14 -37 16 -39 10 -10 -4 19 -8 52 -8 73 0 40 -1 42 -10 27z" fill="#fcfafa"/>
<path d="M1160 575 c0 -8 7 -18 15 -21 8 -4 15 -13 15 -21 0 -10 -6 -13 -17 -8 -15 5 -16 4 -5 -6 10 -11 15 -10 26 1 13 13 12 19 -10 43 -17 20 -24 23 -24 12z" fill="#fcfafa"/>
<path d="M1243 550 c0 -25 2 -35 4 -22 2 12 2 32 0 45 -2 12 -4 2 -4 -23z" fill="#fcfafa"/>
<path d="M1290 587 c0 -5 7 -15 15 -23 8 -8 19 -23 24 -32 5 -9 13 -14 16 -10 4 4 -7 22 -24 40 -17 18 -31 29 -31 25z" fill="#fcfafa"/>
<path d="M1387 583 c-9 -9 -9 -51 1 -56 4 -3 7 10 7 29 0 19 0 34 -1 34 0 0 -4 -3 -7 -7z" fill="#fcfafa"/>
<path d="M1472 555 c0 -22 2 -32 5 -22 2 9 10 17 16 17 9 0 9 2 1 8 -6 4 -14 14 -17 22 -3 8 -5 -3 -5 -25z" fill="#fcfafa"/>
<path d="M1659 578 c11 -15 11 -22 -3 -43 -9 -14 -13 -25 -8 -25 5 0 14 12 21 27 10 22 9 29 -5 42 -17 15 -17 15 -5 -1z" fill="#fcfafa"/>
<path d="M1717 583 c15 -3 20 -9 17 -21 -5 -15 -4 -15 5 -2 17 24 13 30 -16 29 -23 -1 -24 -2 -6 -6z" fill="#fcfafa"/>
<path d="M1774 576 c-3 -8 -4 -25 -1 -38 3 -17 5 -15 6 10 1 21 6 32 16 32 18 0 20 -40 3 -60 -11 -12 -10 -12 5 0 23 17 19 64 -6 68 -9 2 -20 -3 -23 -12z" fill="#fcfafa"/>
<path d="M1630 566 c0 -8 4 -17 9 -20 5 -4 7 3 4 14 -6 23 -13 26 -13 6z" fill="#fcfafa"/>
<path d="M1716 523 c-6 -14 -5 -15 5 -6 7 7 10 15 7 18 -3 3 -9 -2 -12 -12z" fill="#fcfafa"/>
</g>
</svg>