<svg xmlns="http://www.w3.org/2000/svg" version="1.0" width="360.000000pt" height="360.000000pt" viewBox="0 0 360.000000 360.000000" preserveAspectRatio="xMidYMid meet" transform="matrix(-1, 0, 0, 1, 0, 0)">

<g transform="translate(0.000000,360.000000) scale(0.100000,-0.100000)" fill="#ffffff" stroke="none">
<path d="M2131 3329 c-457 -56 -814 -372 -932 -825 -20 -76 -23 -113 -23 -254 0 -146 4 -176 27 -263 41 -154 120 -309 218 -428 l38 -45 -124 -124 -125 -125 -53 53 c-29 28 -62 52 -73 52 -11 0 -174 -131 -393 -317 -347 -294 -376 -320 -399 -372 -45 -97 -32 -212 34 -298 58 -76 183 -130 274 -118 100 14 113 26 453 425 184 217 317 383 317 395 0 10 -24 43 -52 72 l-53 53 125 125 124 124 45 -38 c120 -98 274 -177 426 -218 87 -23 121 -26 260 -27 169 -1 221 7 355 52 340 113 609 400 700 749 109 416 -45 871 -384 1132 -217 168 -521 253 -785 220z m392 -113 c180 -54 312 -131 437 -256 124 -125 201 -255 257 -437 25 -82 27 -100 27 -268 0 -205 -13 -271 -82 -419 -55 -117 -113 -198 -206 -292 -135 -134 -287 -220 -476 -267 -109 -27 -327 -29 -437 -4 -387 88 -682 383 -770 770 -25 110 -23 328 4 437 95 381 389 670 763 751 130 28 363 21 483 -15z m-1344 -2040 l94 -94 -22 -31 c-12 -17 -26 -31 -29 -31 -4 0 -52 45 -107 101 l-100 100 30 25 c17 13 32 24 35 24 3 0 48 -42 99 -94z m-120 -120 l104 -104 -21 -29 c-62 -84 -452 -531 -481 -550 -26 -18 -48 -23 -93 -23 -88 0 -158 43 -199 122 -28 54 -26 145 4 189 21 31 561 499 576 499 4 0 53 -47 110 -104z" fill="#ffffff"/>
<path d="M2150 3150 c-378 -47 -676 -311 -776 -686 -25 -93 -25 -320 -1 -417 84 -335 339 -590 674 -674 97 -24 324 -24 417 1 447 119 733 524 685 971 -35 334 -257 627 -566 747 -134 52 -301 74 -433 58z m358 -118 c168 -58 292 -146 396 -282 63 -82 92 -138 128 -242 27 -81 32 -110 36 -223 5 -148 -14 -253 -67 -369 -103 -227 -314 -402 -557 -463 -105 -26 -296 -23 -399 6 -290 80 -506 296 -586 586 -29 103 -32 294 -6 399 61 243 236 454 463 557 118 54 202 69 359 66 127 -3 149 -6 233 -35z" fill="#ffffff"/>
<path d="M504 686 c-60 -27 -91 -95 -73 -160 14 -50 47 -82 98 -96 35 -9 48 -8 85 9 51 22 76 55 82 108 13 100 -99 181 -192 139z m96 -86 c24 -24 25 -38 4 -68 -17 -24 -62 -30 -82 -10 -20 20 -14 65 10 82 30 21 44 20 68 -4z" fill="#ffffff"/>
</g>
</svg>