<svg xmlns="http://www.w3.org/2000/svg" version="1.0" width="512.000000pt" height="512.000000pt" viewBox="0 0 512.000000 512.000000" preserveAspectRatio="xMidYMid meet">

<g transform="translate(0.000000,512.000000) scale(0.100000,-0.100000)" fill="#303030" stroke="none">
<path d="M833 4565 c-130 -40 -255 -175 -278 -298 l-7 -36 703 -3 c653 -3 707 -4 744 -21 54 -24 74 -44 252 -254 l154 -183 907 0 c759 0 918 -3 977 -15 204 -43 378 -200 448 -405 l22 -65 3 -1104 3 -1103 37 6 c98 18 225 113 271 204 52 103 51 69 51 1303 0 733 -4 1166 -10 1200 -33 173 -182 309 -363 330 -40 4 -481 8 -982 9 l-910 1 -188 224 -189 225 -801 -1 c-634 0 -811 -3 -844 -14z" fill="#303030"/>
<path d="M332 4039 c-159 -31 -291 -166 -322 -329 -14 -72 -14 -2768 0 -2840 28 -147 141 -271 289 -316 69 -21 3913 -21 3982 0 105 32 192 102 244 194 57 102 56 69 53 1345 l-3 1172 -23 57 c-44 109 -131 196 -240 240 l-57 23 -970 3 -970 4 -150 180 c-82 99 -170 202 -196 229 l-45 49 -775 -1 c-425 -1 -793 -5 -817 -10z" fill="#303030"/>
</g>
</svg>