<svg xmlns="http://www.w3.org/2000/svg" version="1.0" width="1240.000000pt" height="1240.000000pt" viewBox="0 0 1240.000000 1240.000000" preserveAspectRatio="xMidYMid meet">

<g transform="translate(0.000000,1240.000000) scale(0.100000,-0.100000)" fill="#a77b45" stroke="none">
<path d="M5878 10103 l-2087 -2088 -1705 -3412 -1706 -3412 0 -123 0 -123 293 -293 292 -292 127 0 128 0 3407 1704 3408 1705 2088 2088 c1148 1148 2087 2092 2087 2098 0 13 -502 515 -515 515 -6 0 -876 -866 -1935 -1925 -1059 -1059 -1932 -1925 -1940 -1925 -20 0 -3180 3160 -3180 3180 0 8 866 881 1925 1940 1059 1059 1925 1930 1925 1935 0 13 -502 515 -515 515 -6 0 -949 -939 -2097 -2087z m-169 -4436 c810 -811 1472 -1480 1470 -1486 -4 -12 -2796 -1411 -2816 -1411 -8 0 -18 10 -23 23 -5 12 -75 288 -155 612 -81 325 -152 595 -158 602 -7 6 -284 79 -616 162 -333 83 -610 156 -615 161 -7 7 207 447 683 1398 381 763 699 1397 707 1410 11 17 19 20 32 13 9 -6 680 -673 1491 -1484z m-2808 -2137 c244 -61 461 -115 481 -121 33 -8 39 -15 48 -52 6 -23 17 -67 25 -97 8 -30 31 -120 50 -200 19 -80 39 -161 45 -180 38 -134 109 -446 105 -459 -5 -16 -2387 -1211 -2413 -1211 -6 0 -12 5 -12 10 0 12 1187 2389 1202 2408 6 6 14 12 18 12 4 0 207 -50 451 -110z" fill="#a77b45"/>
</g>
</svg>