<svg xmlns="http://www.w3.org/2000/svg" data-name="Layer 1" id="Layer_1" viewBox="0 0 64 64"><defs fill="#c3a783"><style>.cls-1{fill:none;stroke:#c3a783;stroke-miterlimit:10;stroke-width:2px;}</style></defs><title/><path d="M32.5,2C37,2,40.58,7,40.58,13.19S37,24.37,32.5,24.37s-8.08-5-8.08-11.18S28,2,32.5,2m0-2C26.93,0,22.42,5.9,22.42,13.19S26.93,26.37,32.5,26.37s10.08-5.9,10.08-13.18S38.07,0,32.5,0Z" fill="#c3a783"/><path class="cls-1" d="M26.76,26.37a28.49,28.49,0,0,1-11.47,6.26C9.18,34.38,6.72,53,6.09,58.94a1.94,1.94,0,0,0,1.64,2.13h0a160.12,160.12,0,0,0,49.54,0h0a1.94,1.94,0,0,0,1.64-2.13c-.63-6-3.09-24.56-9.2-26.31a28.49,28.49,0,0,1-11.47-6.26" fill="#c3a783"/></svg>