<svg xmlns="http://www.w3.org/2000/svg" version="1.0" width="210.000000pt" height="164.000000pt" viewBox="0 0 210.000000 164.000000" preserveAspectRatio="xMidYMid meet">

<g transform="translate(0.000000,164.000000) scale(0.100000,-0.100000)" fill="#fffcfc" stroke="none">
<path d="M943 1633 c-7 -3 -15 -21 -19 -41 -14 -83 -65 -332 -71 -348 -4 -12 -2 -15 8 -12 8 2 18 23 24 47 9 42 9 42 49 39 39 -3 41 -5 47 -41 6 -37 15 -54 24 -46 2 3 0 36 -5 74 -4 39 -14 117 -20 175 -14 129 -21 158 -37 153z m24 -217 l6 -89 -24 6 c-13 4 -30 7 -38 7 -15 0 -13 26 15 150 16 69 18 73 26 45 4 -16 11 -70 15 -119z" fill="#fffcfc"/>
<path d="M687 1618 c-29 -23 -37 -67 -37 -208 0 -117 3 -141 18 -160 19 -23 82 -33 89 -14 2 7 -5 10 -20 7 -18 -4 -30 3 -47 24 -21 27 -22 35 -18 163 4 150 12 175 61 189 l32 9 -31 1 c-16 1 -38 -5 -47 -11z" fill="#fffcfc"/>
<path d="M1115 1434 c-5 -139 -4 -199 4 -207 13 -13 13 -14 15 103 1 90 2 95 24 98 28 4 29 22 2 22 -19 0 -21 5 -18 78 l3 77 38 3 c51 4 37 22 -17 22 l-44 0 -7 -196z" fill="#fffcfc"/>
<path d="M1319 1505 c-1 -69 -1 -160 -2 -202 l-1 -78 33 -3 c49 -5 75 10 31 17 l-35 6 -3 104 -3 103 26 -6 c18 -5 25 -2 25 9 0 9 -9 15 -25 15 -24 0 -25 2 -25 69 l0 70 38 -6 c49 -7 31 12 -20 21 l-38 7 -1 -126z" fill="#fffcfc"/>
<path d="M395 1330 c-4 -6 20 -10 64 -10 41 0 71 4 71 10 0 6 -28 10 -64 10 -36 0 -68 -4 -71 -10z" fill="#fffcfc"/>
<path d="M1555 1330 c-4 -6 22 -10 69 -10 44 0 76 4 76 10 0 6 -30 10 -69 10 -39 0 -73 -4 -76 -10z" fill="#fffcfc"/>
<path d="M390 1260 c0 -6 28 -10 64 -10 36 0 68 5 71 10 4 6 -20 10 -64 10 -41 0 -71 -4 -71 -10z" fill="#fffcfc"/>
<path d="M1560 1260 c0 -6 28 -10 64 -10 36 0 68 5 71 10 4 6 -20 10 -64 10 -41 0 -71 -4 -71 -10z" fill="#fffcfc"/>
<path d="M317 1146 c-62 -23 -115 -65 -137 -112 -27 -56 -20 -98 18 -112 27 -9 27 -9 27 42 1 95 70 164 167 167 61 3 84 -7 98 -42 17 -41 -1 -99 -41 -133 -54 -45 -69 -32 -50 44 24 95 25 90 -16 90 -21 0 -44 -4 -51 -8 -10 -7 -102 -398 -102 -438 0 -10 13 -14 45 -14 51 0 48 -5 81 162 20 102 31 123 62 114 34 -11 37 -50 13 -151 -12 -50 -19 -98 -16 -108 9 -21 38 -30 74 -22 27 6 29 9 24 43 -3 20 2 65 11 98 21 83 20 120 -5 145 l-20 20 30 34 c58 66 50 132 -22 175 -38 24 -132 26 -190 6z" fill="#fffcfc"/>
<path d="M1740 1123 c-19 -3 -38 -7 -42 -11 -4 -4 -25 -89 -46 -189 -22 -100 -47 -194 -56 -208 -19 -28 -53 -33 -63 -8 -5 14 23 187 43 261 6 20 3 22 -40 22 -32 0 -48 -5 -52 -15 -5 -13 -8 -13 -27 0 -79 55 -193 -48 -218 -196 -8 -45 -19 -72 -37 -91 -32 -35 -56 -37 -49 -5 4 12 19 84 35 160 l30 137 -48 0 -49 0 -16 -77 c-28 -130 -44 -179 -65 -198 -19 -17 -22 -17 -37 -2 -15 15 -15 24 6 124 12 59 25 118 28 131 5 21 2 22 -45 22 l-50 0 -7 -42 c-8 -46 -18 -58 -51 -58 -16 0 -24 10 -33 40 -14 47 -43 70 -91 70 -93 -1 -170 -97 -178 -224 -4 -65 -2 -75 19 -100 51 -59 162 -38 210 40 12 21 28 60 34 88 10 43 15 51 40 58 16 4 30 6 31 5 2 -1 -4 -31 -11 -67 -20 -90 -18 -107 10 -135 27 -28 71 -33 101 -10 25 19 34 19 34 0 0 -8 -18 -22 -40 -31 -103 -42 -108 -154 -6 -154 73 0 114 42 131 132 5 26 14 39 29 44 11 3 33 17 47 31 l26 24 16 -25 c23 -34 78 -44 123 -22 19 9 37 23 40 31 8 19 24 20 24 2 0 -23 35 -47 67 -47 17 0 47 11 67 25 l36 24 24 -24 c32 -32 70 -32 101 0 24 23 35 52 16 41 -4 -3 -16 1 -27 8 -18 13 -17 21 24 212 46 216 46 215 35 212 -5 0 -24 -3 -43 -5z m-943 -189 c3 -8 0 -27 -8 -40 -10 -20 -11 -29 -1 -45 33 -52 -50 -184 -97 -154 -31 18 2 188 45 236 21 23 52 25 61 3z m662 2 c19 -23 -23 -195 -55 -223 -30 -27 -37 -28 -55 -7 -31 38 6 196 55 229 26 19 40 19 55 1z" fill="#fffcfc"/>
<path d="M1810 813 c0 -5 19 -17 41 -28 49 -23 104 -84 120 -133 29 -87 -12 -188 -99 -243 -83 -53 -161 -71 -324 -76 -200 -7 -332 8 -678 77 -362 73 -446 84 -575 77 -116 -6 -180 -23 -250 -68 l-50 -32 50 -12 c56 -13 86 -27 104 -49 11 -13 6 -24 -36 -69 -43 -47 -83 -130 -70 -143 2 -2 34 10 71 27 124 58 259 52 542 -25 201 -55 333 -82 499 -101 162 -19 405 -19 510 0 144 26 284 115 355 225 71 111 98 267 64 380 -21 72 -97 149 -177 178 -59 22 -97 28 -97 15z m-1277 -422 c34 -13 44 -47 22 -71 -17 -18 -17 -32 0 -73 6 -16 4 -18 -15 -15 -16 2 -27 14 -35 38 -10 31 -12 32 -17 12 -4 -12 -2 -22 3 -22 5 0 9 -4 9 -10 0 -14 -57 -13 -66 1 -3 6 -1 15 5 19 7 4 13 33 14 68 2 60 3 62 29 62 15 0 38 -4 51 -9z m214 -57 c21 -21 24 -32 20 -61 -7 -41 -22 -62 -54 -74 -28 -10 -80 7 -93 31 -46 86 59 172 127 104z m-403 -1 c4 -9 0 -23 -9 -32 -13 -14 -17 -14 -31 1 -9 9 -14 24 -11 32 8 21 43 20 51 -1z m558 -90 c3 -38 8 -76 13 -85 6 -16 3 -17 -26 -12 -42 8 -44 10 -31 27 13 15 6 27 -15 27 -7 0 -13 -9 -13 -20 0 -23 0 -23 -36 -10 l-27 11 21 19 c12 11 33 40 48 65 15 27 33 45 44 45 15 0 18 -11 22 -67z m152 27 c16 -6 26 -17 26 -29 0 -28 -20 -37 -27 -12 -3 12 -12 21 -19 21 -22 0 -17 -20 11 -46 32 -29 32 -59 1 -79 -21 -14 -28 -14 -59 -1 -28 11 -34 19 -30 35 6 24 33 29 33 7 0 -20 20 -30 33 -17 8 8 4 18 -16 39 -31 32 -35 66 -9 81 22 13 25 13 56 1z m659 -22 c8 -28 2 -34 -17 -19 -8 7 -20 10 -26 6 -19 -12 -10 -23 23 -30 42 -9 57 -22 57 -51 0 -27 -34 -54 -68 -54 -26 0 -40 26 -23 43 8 8 11 8 11 -2 0 -14 40 -11 43 4 1 5 -15 14 -35 20 -20 5 -42 15 -49 22 -19 19 -2 60 28 71 42 16 50 14 56 -10z m142 -18 c0 -16 -6 -26 -18 -28 -19 -4 -32 20 -23 44 9 25 41 13 41 -16z m-612 4 c19 -6 23 -29 6 -39 -6 -4 -16 1 -24 11 -13 18 -14 17 -21 -11 -4 -16 -8 -48 -8 -72 -1 -43 -1 -43 -31 -37 -37 8 -43 13 -28 22 14 9 36 99 27 113 -4 6 -11 6 -20 -2 -18 -15 -29 -6 -20 17 5 13 15 15 54 10 26 -4 55 -9 65 -12z m167 -35 c0 -22 -4 -23 -30 -6 -17 10 -22 9 -30 -3 -15 -23 -12 -32 10 -28 10 2 19 0 20 -4 2 -35 -1 -39 -20 -33 -16 5 -20 2 -20 -14 0 -24 28 -29 48 -9 9 9 12 6 12 -16 l0 -28 -57 7 c-62 7 -74 12 -57 23 15 10 27 109 14 117 -21 13 0 20 54 17 47 -3 56 -7 56 -23z m134 25 c27 -10 37 -40 24 -69 -10 -22 -8 -28 10 -48 28 -30 28 -37 -1 -37 -16 0 -28 9 -35 25 -6 14 -16 25 -22 25 -13 0 -13 -13 1 -27 6 -6 8 -16 5 -22 -9 -14 -66 -15 -66 -1 0 6 5 10 10 10 13 0 2 100 -11 115 -16 16 -10 24 24 28 17 2 35 5 39 5 3 1 14 -1 22 -4z" fill="#fffcfc"/>
<path d="M498 345 c-3 -16 -1 -25 7 -25 15 0 28 28 19 41 -10 16 -22 9 -26 -16z" fill="#fffcfc"/>
<path d="M660 304 c-18 -47 -6 -84 28 -84 17 0 45 66 37 91 -10 29 -53 25 -65 -7z" fill="#fffcfc"/>
<path d="M857 243 c-10 -9 -9 -23 1 -23 5 0 9 7 9 15 0 17 -1 18 -10 8z" fill="#fffcfc"/>
<path d="M1510 175 c0 -17 5 -25 13 -22 6 2 12 12 12 22 0 10 -6 20 -12 23 -8 2 -13 -6 -13 -23z" fill="#fffcfc"/>
</g>
</svg>