<svg xmlns="http://www.w3.org/2000/svg" version="1.0" width="512.000000pt" height="512.000000pt" viewBox="0 0 512.000000 512.000000" preserveAspectRatio="xMidYMid meet">

<g transform="translate(0.000000,512.000000) scale(0.100000,-0.100000)" fill="#303030" stroke="none">
<path d="M2510 4513 c-8 -3 -553 -210 -1210 -460 -657 -250 -1208 -462 -1225 -472 -39 -23 -75 -77 -75 -114 0 -34 33 -98 60 -115 10 -6 566 -246 1236 -533 1006 -431 1227 -523 1264 -523 37 0 254 90 1264 523 670 287 1226 527 1236 534 27 16 60 80 60 114 0 37 -36 91 -75 114 -17 10 -570 223 -1230 475 -1151 438 -1260 476 -1305 457z m1068 -659 c559 -213 1021 -390 1025 -394 10 -9 -2011 -875 -2043 -875 -29 0 -2053 865 -2044 874 4 5 2030 779 2042 781 1 0 460 -174 1020 -386z" fill="#303030"/>
<path d="M75 2995 c-65 -34 -91 -113 -60 -178 9 -20 27 -42 39 -50 12 -8 581 -254 1264 -547 l1242 -531 1242 531 c683 293 1252 538 1264 547 27 17 54 71 54 108 0 74 -77 142 -149 132 -20 -2 -568 -232 -1218 -511 -650 -278 -1187 -506 -1193 -506 -6 0 -543 228 -1193 506 -706 303 -1198 508 -1222 511 -24 2 -52 -3 -70 -12z" fill="#303030"/>
<path d="M4955 2460 c-16 -4 -562 -235 -1213 -514 l-1182 -507 -1191 511 c-933 399 -1200 510 -1233 510 -124 0 -182 -149 -90 -232 11 -9 580 -257 1267 -551 l1247 -535 1248 535 c686 294 1255 542 1266 551 25 24 46 66 46 97 0 86 -83 153 -165 135z" fill="#303030"/>
<path d="M72 1900 c-71 -43 -92 -135 -45 -199 15 -21 280 -138 1276 -565 l1257 -539 1257 539 c996 427 1261 544 1276 565 29 40 33 107 8 147 -26 40 -76 72 -115 72 -15 0 -565 -230 -1220 -510 -656 -280 -1198 -510 -1206 -510 -8 0 -550 230 -1206 510 -655 281 -1205 510 -1220 510 -16 0 -44 -9 -62 -20z" fill="#303030"/>
</g>
</svg>