<svg xmlns="http://www.w3.org/2000/svg" version="1.0" width="200.000000pt" height="200.000000pt" viewBox="0 0 200.000000 200.000000" preserveAspectRatio="xMidYMid meet">

<g transform="translate(0.000000,200.000000) scale(0.100000,-0.100000)" fill="#654a29" stroke="none">
<path d="M802 1979 c-402 -84 -700 -384 -782 -788 -71 -350 63 -730 337 -956 529 -436 1320 -236 1572 398 180 453 1 977 -419 1226 -209 125 -474 169 -708 120z m418 -169 c292 -82 507 -300 592 -598 32 -110 32 -314 0 -424 -86 -300 -299 -515 -597 -600 -115 -32 -315 -32 -430 0 -298 85 -511 300 -597 600 -32 110 -32 314 0 424 41 145 98 249 195 355 124 135 297 230 479 262 84 16 272 5 358 -19z" fill="#654a29"/>
<path d="M763 1470 c-52 -31 -55 -54 -51 -488 l3 -394 33 -29 c44 -40 93 -40 133 0 l29 29 0 417 c0 266 -4 423 -10 436 -12 22 -60 49 -87 49 -10 0 -32 -9 -50 -20z" fill="#654a29"/>
<path d="M1163 1470 c-52 -31 -55 -54 -51 -488 l3 -394 33 -29 c44 -40 93 -40 133 0 l29 29 0 417 c0 266 -4 423 -10 436 -12 22 -60 49 -87 49 -10 0 -32 -9 -50 -20z" fill="#654a29"/>
</g>
</svg>