<svg xmlns="http://www.w3.org/2000/svg" version="1.0" width="200.000000pt" height="200.000000pt" viewBox="0 0 200.000000 200.000000" preserveAspectRatio="xMidYMid meet">

<g transform="translate(0.000000,200.000000) scale(0.100000,-0.100000)" fill="#a77b45" stroke="none">
<path d="M844 1745 c-147 -32 -266 -98 -378 -211 -153 -152 -226 -326 -226 -539 0 -202 70 -378 209 -527 149 -159 338 -240 561 -239 216 0 396 77 546 233 149 154 215 318 215 533 0 224 -83 414 -246 562 -105 96 -227 160 -363 188 -83 18 -237 18 -318 0z m241 -547 c168 -106 305 -198 305 -204 0 -16 -619 -406 -631 -398 -5 3 -9 173 -9 400 0 348 2 394 15 394 9 0 153 -87 320 -192z" fill="#a77b45"/>
</g>
</svg>