<svg xmlns="http://www.w3.org/2000/svg" version="1.0" width="256.000000pt" height="256.000000pt" viewBox="0 0 256.000000 256.000000" preserveAspectRatio="xMidYMid meet">

<g transform="translate(0.000000,256.000000) scale(0.100000,-0.100000)" fill="#ffffff" stroke="none">
<path d="M1172 2203 l-102 -178 105 -3 c58 -1 152 -1 210 0 l105 3 -102 178 c-57 97 -105 177 -108 177 -3 0 -51 -80 -108 -177z" fill="#ffffff"/>
<path d="M1070 1956 c0 -14 202 -351 210 -351 8 0 210 337 210 351 0 2 -94 4 -210 4 -115 0 -210 -2 -210 -4z" fill="#ffffff"/>
<path d="M954 1824 c-31 -55 -79 -136 -105 -181 l-49 -83 210 0 c116 0 210 2 210 4 0 6 -191 339 -201 350 -4 4 -33 -36 -65 -90z" fill="#ffffff"/>
<path d="M1442 1746 c-56 -98 -102 -180 -102 -182 0 -2 94 -4 209 -4 l210 0 -92 158 c-51 88 -99 169 -108 182 -15 22 -17 19 -117 -154z" fill="#ffffff"/>
<path d="M810 1489 c0 -10 184 -336 199 -352 6 -6 211 338 211 356 0 4 -92 7 -205 7 -139 0 -205 -3 -205 -11z" fill="#ffffff"/>
<path d="M1340 1493 c0 -18 205 -362 211 -356 15 16 199 342 199 352 0 8 -66 11 -205 11 -113 0 -205 -3 -205 -7z" fill="#ffffff"/>
<path d="M644 1288 c-54 -95 -100 -176 -102 -180 -2 -4 89 -8 203 -8 180 0 206 2 201 15 -7 19 -185 328 -195 338 -4 4 -52 -70 -107 -165z" fill="#ffffff"/>
<path d="M1769 1388 c-23 -40 -66 -114 -95 -164 -30 -50 -56 -99 -60 -108 -6 -14 13 -16 200 -16 113 0 206 2 206 4 0 4 -199 348 -204 354 -3 2 -23 -29 -47 -70z" fill="#ffffff"/>
<path d="M542 1022 c17 -45 203 -351 209 -345 10 10 187 317 195 337 5 14 -18 16 -201 16 -114 0 -205 -4 -203 -8z" fill="#ffffff"/>
<path d="M1614 1014 c8 -20 185 -327 195 -337 6 -6 192 300 209 345 2 4 -89 8 -203 8 -183 0 -206 -2 -201 -16z" fill="#ffffff"/>
<path d="M371 815 c-55 -96 -101 -177 -101 -180 0 -3 94 -5 210 -5 116 0 210 2 210 4 0 11 -203 356 -210 356 -4 0 -53 -79 -109 -175z" fill="#ffffff"/>
<path d="M1971 814 c-55 -97 -101 -178 -101 -180 0 -2 95 -4 210 -4 116 0 210 2 210 5 0 11 -203 355 -210 355 -4 0 -53 -79 -109 -176z" fill="#ffffff"/>
<path d="M287 538 c10 -18 57 -99 103 -180 47 -82 87 -148 90 -148 3 0 43 66 90 148 46 81 93 162 103 180 l19 32 -212 0 -212 0 19 -32z" fill="#ffffff"/>
<path d="M1340 565 c0 -3 46 -85 101 -181 82 -140 104 -173 114 -162 6 7 55 88 108 181 l96 167 -209 0 c-116 0 -210 -2 -210 -5z" fill="#ffffff"/>
<path d="M1887 538 c10 -18 57 -99 103 -180 47 -82 87 -148 90 -148 3 0 43 66 90 148 46 81 93 162 103 180 l19 32 -212 0 -212 0 19 -32z" fill="#ffffff"/>
<path d="M108 358 l-106 -183 206 -3 c113 -1 207 0 210 2 3 4 -185 341 -203 364 -1 1 -50 -80 -107 -180z" fill="#ffffff"/>
<path d="M1708 358 l-106 -183 206 -3 c113 -1 207 0 210 2 3 4 -185 341 -203 364 -1 1 -50 -80 -107 -180z" fill="#ffffff"/>
<path d="M2241 359 c-57 -99 -101 -182 -99 -185 3 -2 97 -3 210 -2 l206 3 -103 178 c-56 97 -104 179 -106 181 -2 2 -51 -77 -108 -175z" fill="#ffffff"/>
<path d="M1174 358 c-54 -94 -100 -175 -102 -180 -2 -4 92 -8 208 -8 116 0 210 4 208 8 -10 27 -203 352 -208 352 -3 0 -51 -77 -106 -172z" fill="#ffffff"/>
</g>
</svg>